<?xml version="1.0" standalone="no"?>
<!DOCTYPE svg PUBLIC "-//W3C//DTD SVG 20010904//EN"
 "http://www.w3.org/TR/2001/REC-SVG-20010904/DTD/svg10.dtd">
<svg version="1.0" xmlns="http://www.w3.org/2000/svg"
 width="40.000000pt" height="40.000000pt" viewBox="0 0 40.000000 40.000000"
 preserveAspectRatio="xMidYMid meet">

<g transform="translate(0.000000,40.000000) scale(0.100000,-0.100000)"
fill="#000000" stroke="none">
<path d="M180 383 c-23 -8 -180 -166 -180 -181 0 -7 7 -15 16 -19 11 -4 42 20
100 78 l84 84 84 -84 c58 -58 89 -82 100 -78 25 10 19 30 -18 67 -27 25 -36
43 -38 74 -2 29 -8 42 -20 44 -13 3 -18 -3 -18 -19 l0 -22 -22 20 c-21 19 -63
44 -70 42 -2 0 -10 -3 -18 -6z"/>
<path d="M124 228 l-77 -77 5 -57 c6 -65 23 -84 74 -84 33 0 33 1 36 53 l3 52
35 0 35 0 3 -52 c3 -52 3 -53 36 -53 51 0 68 19 74 83 l4 57 -75 77 -76 78
-77 -77z"/>
</g>
</svg>
